<svg xmlns="http://www.w3.org/2000/svg" width="52" height="52" viewBox="0 0 52 52" role="img" aria-label="Folea logo">

<rect x="0" y="0" width="52" height="52" rx="13" fill="#1b1b1f"/>
<g transform="rotate(-11 16 26)">
<rect x="6.75" y="12.75" width="18.5" height="26.5" rx="3.25" fill="#2a2a2f" stroke="#38383e" stroke-width="1.5"/>
<rect x="10.5" y="17.5" width="12" height="2" fill="#46464e"/>
<rect x="10.5" y="22.5" width="9" height="2" fill="#46464e"/>
<rect x="10.5" y="27.5" width="12" height="2" fill="#46464e"/>
<rect x="10.5" y="32.5" width="7" height="2" fill="#46464e"/>
</g>
<g transform="rotate(11 36 26)">
<rect x="26.75" y="12.75" width="18.5" height="26.5" rx="3.25" fill="#2a2a2f" stroke="#38383e" stroke-width="1.5"/>
<rect x="29.5" y="17.5" width="12" height="2" fill="#46464e"/>
<rect x="32.5" y="22.5" width="9" height="2" fill="#46464e"/>
<rect x="29.5" y="27.5" width="12" height="2" fill="#46464e"/>
<rect x="34.5" y="32.5" width="7" height="2" fill="#46464e"/>
</g>
<circle cx="26" cy="18.1" r="6.5" fill="#5fc28d"/>
<circle cx="35.035037" cy="24.664339" r="6.5" fill="#5fc28d"/>
<circle cx="31.58396" cy="35.285661" r="6.5" fill="#5fc28d"/>
<circle cx="20.41604" cy="35.285661" r="6.5" fill="#5fc28d"/>
<circle cx="16.964963" cy="24.664339" r="6.5" fill="#5fc28d"/>
<circle cx="26" cy="27.6" r="5" fill="#1b1b1f"/>
</svg>
