<svg width="657.2" height="232" viewBox="0 0 657.2 232" xmlns="http://www.w3.org/2000/svg">
  <defs>
    <mask id="petalgaps" maskUnits="userSpaceOnUse" x="0" y="0" width="657.2" height="232">
      <rect x="0" y="0" width="657.2" height="232" fill="#ffffff"></rect>
      <g transform="translate(139.61,190.05) scale(1.0732)">
    <path d="M0,0 C50,-26 34,-88 0,-118 C-34,-88 -50,-26 0,0 Z" fill="#ffffff" stroke="#000000" stroke-width="10.25" stroke-linejoin="round" transform="rotate(-62) scale(1.12,1)"></path>
    <path d="M0,0 C50,-26 34,-88 0,-118 C-34,-88 -50,-26 0,0 Z" fill="#ffffff" stroke="#000000" stroke-width="10.25" stroke-linejoin="round" transform="rotate(62) scale(1.12,1)"></path>
    <path d="M0,0 C50,-26 34,-88 0,-118 C-34,-88 -50,-26 0,0 Z" fill="#ffffff" stroke="#000000" stroke-width="10.25" stroke-linejoin="round" transform="rotate(-28) scale(1,1.14)"></path>
    <path d="M0,0 C50,-26 34,-88 0,-118 C-34,-88 -50,-26 0,0 Z" fill="#ffffff" stroke="#000000" stroke-width="10.25" stroke-linejoin="round" transform="rotate(28) scale(1,1.14)"></path>
    <path d="M0,0 C50,-26 34,-88 0,-118 C-34,-88 -50,-26 0,0 Z" fill="#ffffff" stroke="#000000" stroke-width="10.25" stroke-linejoin="round" transform="rotate(0) scale(0.96,1.28)"></path>
  </g>
    </mask>
  </defs>
  <g mask="url(#petalgaps)">
    <g transform="translate(139.61,190.05) scale(1.0732)">
    <path d="M0,0 C50,-26 34,-88 0,-118 C-34,-88 -50,-26 0,0 Z" fill="#3f9068" transform="rotate(-62) scale(1.12,1)"></path>
    <path d="M0,0 C50,-26 34,-88 0,-118 C-34,-88 -50,-26 0,0 Z" fill="#3f9068" transform="rotate(62) scale(1.12,1)"></path>
    <path d="M0,0 C50,-26 34,-88 0,-118 C-34,-88 -50,-26 0,0 Z" fill="#7fd3a6" transform="rotate(-28) scale(1,1.14)"></path>
    <path d="M0,0 C50,-26 34,-88 0,-118 C-34,-88 -50,-26 0,0 Z" fill="#7fd3a6" transform="rotate(28) scale(1,1.14)"></path>
    <path d="M0,0 C50,-26 34,-88 0,-118 C-34,-88 -50,-26 0,0 Z" fill="#7fd3a6" transform="rotate(0) scale(0.96,1.28)"></path>
  </g>
  </g>
  <path transform="translate(277.17,168.50)" fill="#f4f5f6" d="M40.20 0L24.75 0L24.75-60.90L4.05-60.90L4.05-73.95L24.75-73.95L24.75-90.15Q24.75-96.90 28.72-100.95Q32.70-105 39.60-105L39.60-105L58.65-105L58.65-92.10L44.55-92.10Q40.20-92.10 40.20-87.60L40.20-87.60L40.20-73.95L61.50-73.95L61.50-60.90L40.20-60.90L40.20 0ZM105.90 2.10L105.90 2.10Q94.80 2.10 86.17-2.48Q77.55-7.05 72.60-15.60Q67.65-24.15 67.65-35.85L67.65-35.85L67.65-38.10Q67.65-49.80 72.60-58.27Q77.55-66.75 86.17-71.40Q94.80-76.05 105.90-76.05L105.90-76.05Q117-76.05 125.70-71.40Q134.40-66.75 139.35-58.27Q144.30-49.80 144.30-38.10L144.30-38.10L144.30-35.85Q144.30-24.15 139.35-15.60Q134.40-7.05 125.70-2.48Q117 2.10 105.90 2.10ZM105.90-11.70L105.90-11.70Q116.10-11.70 122.47-18.22Q128.85-24.75 128.85-36.30L128.85-36.30L128.85-37.65Q128.85-49.20 122.47-55.73Q116.10-62.25 105.90-62.25L105.90-62.25Q95.70-62.25 89.40-55.73Q83.10-49.20 83.10-37.65L83.10-37.65L83.10-36.30Q83.10-24.75 89.47-18.22Q95.85-11.70 105.90-11.70ZM175.95 0L160.50 0L160.50-105L175.95-105L175.95 0ZM229.80 2.10L229.80 2.10Q218.55 2.10 210.15-2.63Q201.75-7.35 197.03-15.90Q192.30-24.45 192.30-36L192.30-36L192.30-37.80Q192.30-49.35 197.03-57.90Q201.75-66.45 210-71.25Q218.25-76.05 229.20-76.05L229.20-76.05Q239.85-76.05 247.88-71.33Q255.90-66.60 260.40-58.20Q264.90-49.80 264.90-38.55L264.90-38.55L264.90-32.70L208.05-32.70Q208.35-22.95 214.57-17.18Q220.80-11.40 230.10-11.40L230.10-11.40Q238.80-11.40 243.22-15.30Q247.65-19.20 250.05-24.30L250.05-24.30L262.95-17.70Q260.70-13.50 256.80-8.85Q252.90-4.20 246.30-1.05Q239.70 2.10 229.80 2.10ZM208.20-44.55L208.20-44.55L249.30-44.55Q248.55-52.80 243.15-57.60Q237.75-62.40 229.05-62.40L229.05-62.40Q220.35-62.40 214.88-57.60Q209.40-52.80 208.20-44.55ZM303.45 2.10L303.45 2.10Q295.50 2.10 289.28-0.60Q283.05-3.30 279.38-8.55Q275.70-13.80 275.70-21.30L275.70-21.30Q275.70-32.55 283.73-38.32Q291.75-44.10 303.90-44.10L303.90-44.10L326.40-44.10L326.40-48.90Q326.40-55.20 322.50-59.17Q318.60-63.15 310.50-63.15L310.50-63.15Q302.55-63.15 298.35-59.40Q294.15-55.65 292.80-49.65L292.80-49.65L278.40-54.30Q280.20-60.15 284.18-65.10Q288.15-70.05 294.68-73.05Q301.20-76.05 310.65-76.05L310.65-76.05Q325.05-76.05 333.30-68.70Q341.55-61.35 341.55-47.85L341.55-47.85L341.55-17.40Q341.55-12.90 345.75-12.90L345.75-12.90L352.05-12.90L352.05 0L340.50 0Q335.40 0 332.10-2.70Q328.80-5.40 328.80-10.05L328.80-10.05L328.80-10.50L326.40-10.50Q325.20-8.10 322.80-5.17Q320.40-2.25 315.75-0.07Q311.10 2.10 303.45 2.10ZM305.70-10.65L305.70-10.65Q314.85-10.65 320.63-15.97Q326.40-21.30 326.40-30.60L326.40-30.60L326.40-32.10L304.80-32.10Q298.65-32.10 294.90-29.47Q291.15-26.85 291.15-21.75L291.15-21.75Q291.15-16.65 295.05-13.65Q298.95-10.65 305.70-10.65Z"></path>
</svg>